<?xml version="1.0" encoding="UTF-8" standalone="no"?>
<!DOCTYPE svg PUBLIC "-//W3C//DTD SVG 1.1//EN" "http://www.w3.org/Graphics/SVG/1.1/DTD/svg11.dtd">
<svg width="100%" height="100%" viewBox="0 0 1024 1024" version="1.1" xmlns="http://www.w3.org/2000/svg" xmlns:xlink="http://www.w3.org/1999/xlink" xml:space="preserve" xmlns:serif="http://www.serif.com/" style="fill-rule:evenodd;clip-rule:evenodd;stroke-linejoin:round;stroke-miterlimit:2;">
    <g id="Background" transform="matrix(1,0,0,1,18,7)">
        <path d="M480.259,633.665C480.797,637.21 480.577,785.211 480.381,785.398C477.084,788.522 467.623,764.618 407.705,737.041C336.808,704.41 223.768,703.137 139.598,785.755C136.557,788.74 138.135,783.76 138.135,732.5C138.135,241.845 138.057,241.719 138.793,240.696C139.453,239.778 158.478,220.327 184.243,205.077C301.208,135.842 422.013,181.261 479.271,239.716C480.711,241.187 480.538,241.542 480.538,333.5C480.538,335.878 481.523,344.105 478.475,344.156C472.134,344.261 463.737,342.977 463.691,346.509C463.686,346.849 463.681,630.039 463.693,630.49C463.811,635.184 477.377,631.201 480.259,633.665ZM257.897,510.5C257.89,465.59 258.016,465.369 257.285,464.721C256.695,464.198 256.569,464.208 215.501,464.222C209.551,464.224 206.884,462.554 206.88,468.5C206.85,514.205 206.869,514.535 207.759,515.029C209.11,515.78 250.761,515.351 254.5,515.312C259.244,515.263 257.761,511.983 257.897,510.5ZM378.077,576.5C378.202,578.586 376.728,581.563 381.499,581.62C385.18,581.665 424.719,582.139 427.512,581.566C429.39,581.182 429.125,580.203 429.128,516.5C429.134,396.586 429.185,396.355 428.385,395.672C426.918,394.42 384.32,395.216 380.488,395.288C377.53,395.343 378.081,396.99 378.076,428.5L378.077,576.5ZM292.174,542.5C292.387,548.242 294.741,546.855 300.499,546.86C342.149,546.895 342.837,546.954 343.256,545.436C343.388,544.957 343.338,541.846 343.349,477.5C343.357,431.036 343.62,429.9 341.485,429.644C334.453,428.802 298.265,429.552 294.508,429.63C292.023,429.682 292.177,431.771 292.174,432.489C292.174,432.496 292.172,516.103 292.174,542.5Z" style="fill:rgb(254,248,227);"/>
        <path d="M498.468,633.47C498.884,633.431 499.151,632.906 499.567,632.867C503.789,632.474 514.595,634.39 514.704,630.514C514.717,630.049 514.716,346.937 514.704,346.486C514.669,345.136 514.134,344.213 512.531,344.176C499.762,343.881 498.517,345.159 498.122,342.592C498.118,342.566 497.803,243.057 498.287,241.431C498.918,239.311 524.276,214.385 556.715,197.918C700.139,125.109 817.777,215.041 839.115,239.841C840.292,241.208 840.164,241.467 840.164,484.5L840.312,784.467C840.31,790.112 828.82,771.318 792.766,750.055C685.152,686.59 563.846,720.221 500.147,785.062C496.133,789.147 498.056,782.301 498.056,713.5C498.056,635.748 498,635.766 498.468,633.47ZM600.797,576.5C600.815,396.415 600.765,396.307 600.221,395.793C598.359,394.036 555.379,395.19 551.481,395.295C548.954,395.362 549.391,396.807 549.393,430.5C549.405,580.262 549.166,580.938 550.526,581.43C553.237,582.411 594.669,581.68 598.507,581.612C601.736,581.555 600.796,576.514 600.797,576.5ZM686.19,542.5L686.186,432.507C686.172,428.888 684.249,429.613 662.5,429.622C637.105,429.633 635.133,428.876 635.107,432.484C635.042,441.448 634.368,534.315 635.113,544.534C635.389,548.32 637.521,547.224 682.501,546.859C687.738,546.817 685.911,543.967 686.19,542.5ZM720.833,509.5C720.979,513.69 720.199,514.081 721.728,515.063C721.886,515.164 770.244,516.117 771.57,514.545C771.934,514.114 772.439,465.678 771.311,464.684C770.716,464.16 770.585,464.219 733.5,464.221C728.709,464.221 720.954,463.197 720.838,466.518C720.832,466.709 720.835,494.894 720.833,509.5Z" style="fill:rgb(254,250,232);"/>
    </g>
</svg>
